<?xml version="1.0" encoding="utf-8"?>
<!-- Generator: Adobe Illustrator 27.0.1, SVG Export Plug-In . SVG Version: 6.00 Build 0)  -->
<svg version="1.1" id="katman_1" xmlns="http://www.w3.org/2000/svg" xmlns:xlink="http://www.w3.org/1999/xlink" x="0px" y="0px"
	 viewBox="0 0 170 170" style="enable-background:new 0 0 170 170;" xml:space="preserve">
<style type="text/css">
	.st0{fill:#2A327F;}
	.st1{fill-rule:evenodd;clip-rule:evenodd;fill:#2A327F;}
</style>
<path class="st0" d="M16.26,102.05c0-0.04,0.04-0.07,0.09-0.07h9.16c6.43,0,9.85,3.88,9.85,12.07v15.84
	c0,8.19-3.42,12.07-9.85,12.07h-9.16c-0.05,0-0.09-0.03-0.09-0.07V102.05z M22.49,136.3h2.16c3.32,0,4.48-1.38,4.48-5.59v-17.5
	c0-4.21-1.16-5.59-4.48-5.59h-2.16V136.3z"/>
<path class="st0" d="M52.57,141.95h-6.06c-0.05,0-0.09-0.03-0.09-0.07v-16.52c0-0.01,0-0.01,0-0.02l-7.51-23.25
	c-0.01-0.05,0.03-0.1,0.09-0.1h6.15c0.04,0,0.07,0.03,0.08,0.06l4.36,15.17h0.1l4.16-15.16c0.01-0.03,0.05-0.06,0.09-0.06h6.15
	c0.06,0,0.1,0.05,0.08,0.1l-7.51,23.25c0,0.01,0,0.01,0,0.02v16.52C52.66,141.92,52.63,141.95,52.57,141.95"/>
<path class="st0" d="M63.72,141.88v-39.82c0-0.04,0.04-0.08,0.09-0.08h5.63c0.04,0,0.08,0.02,0.09,0.06l7.57,22.81h0.1v-22.79
	c0-0.04,0.04-0.08,0.09-0.08h5.45c0.05,0,0.09,0.04,0.09,0.08v39.82c0,0.04-0.04,0.07-0.09,0.07h-5.27c-0.04,0-0.07-0.02-0.08-0.05
	l-7.93-24.92h-0.1v24.9c0,0.04-0.04,0.07-0.09,0.07h-5.45C63.76,141.95,63.72,141.92,63.72,141.88"/>
<path class="st0" d="M92.41,141.95h-5.85c-0.05,0-0.1-0.04-0.09-0.09l6.66-39.82c0.01-0.04,0.04-0.07,0.09-0.07h7.59
	c0.04,0,0.08,0.03,0.09,0.07l6.66,39.82c0.01,0.05-0.04,0.09-0.09,0.09h-5.85c-0.05,0-0.08-0.03-0.09-0.07l-1.09-8.72
	c-0.01-0.04-0.04-0.07-0.09-0.07h-6.68c-0.05,0-0.08,0.04-0.09,0.07l-1.09,8.72C92.49,141.92,92.45,141.95,92.41,141.95
	 M94.5,127.11h5.03l-2.46-17.17h-0.1L94.5,127.11z"/>
<path class="st0" d="M136.18,102.05v39.82c0,0.04-0.04,0.08-0.09,0.08h-5.25c-0.05,0-0.09-0.03-0.09-0.08v-31.15h-0.1l-5.63,31.22
	H122l-5.63-31.22h-0.1v31.15c0,0.04-0.04,0.08-0.09,0.08h-5.25c-0.05,0-0.09-0.03-0.09-0.08v-39.82c0-0.04,0.04-0.08,0.09-0.08h8.03
	c0.04,0,0.08,0.03,0.09,0.07l4.41,23.3h0.1l4.41-23.3c0.01-0.04,0.04-0.07,0.09-0.07h8.03
	C136.14,101.97,136.18,102.01,136.18,102.05"/>
<path class="st0" d="M141.91,111.66c0-5.14,2.49-9.41,7.87-10.13c5.99-0.81,11.24,3.6,11.24,8.82v23.22c0,5.22-5.25,9.63-11.24,8.82
	c-5.37-0.73-7.87-5-7.87-10.14V111.66z M148.15,132.1c0,2.99,0.81,4.43,3.32,4.43c2.51,0,3.32-1.44,3.32-4.43v-20.27
	c0-2.99-0.81-4.43-3.32-4.43c-2.51,0-3.32,1.44-3.32,4.43V132.1z"/>
<g>
	<path class="st1" d="M65.89,30.9c-9.16,9.55-10.46,25.21-2.19,36.64c1.7,2.34,1.95,2.23,3.32,3.78c1.78,2,6,4.55,8.59,5.66
		c3.57,1.44,7.78,2.33,12.24,2.22c5.92-0.33,11.27-2.33,15.73-5.66c0.96-0.66,3.26-2.61,3.72-3.41c0.01-0.02,0-0.04-0.01-0.06
		c-0.84-1.01-3.64-3.42-4.76-4.52c-0.64,0.44-1.38,1.33-2.11,1.89c-2.19,1.88-5.35,3.55-8.27,4.33c-4.86,1.22-9.89,0.78-14.1-1.11
		c-17.76-7.77-17.35-32.76,0.08-40.2c4.14-1.89,9.24-2.33,13.94-1.11c4.86,1.22,7.86,3.66,10.46,6.22c0.41-0.33,0.81-0.55,1.22-1
		l3.68-3.51c0.03-0.03,0.04-0.06,0.01-0.09c-1.64-2.21-5.9-4.96-8.56-6.28C87.62,19.02,73.6,22.46,65.89,30.9"/>
	<path class="st1" d="M85.35,36.34C77.89,37.12,71.73,43.45,72.46,52c0.65,7.33,7.38,13.66,15.65,12.77
		c7.3-0.66,13.54-7.33,12.73-15.65C100.11,41.78,93.54,35.34,85.35,36.34 M79.19,51.44c-0.49-4.56,2.68-7.99,6.65-8.44
		c4.46-0.44,7.95,2.78,8.27,6.77c0.48,4.44-2.84,7.89-6.73,8.33C83.08,58.55,79.6,55.22,79.19,51.44"/>
</g>
</svg>
